# xmcd CD database file
# Copyright (C) 1993-1998 Ti Kan
#
# Track frame offsets:
# 183
# 12740
# 24033
# 39258
# 50758
# 78783
# 94008
# 104528
# 115188
# 129423
# 141258
# 154808
# 174433
# 187683
#
# Disc length: 2685 seconds
#
# Revision: 0
# Processed by: cddbd v1.4b41PL1 Copyright (c) Steve Scherf et al.
# Submitted via: inCDius 1.1b8
#
DISCID=a70a7b0e
DTITLE=Howlin' Wolf - The Howlin' Wolf Gold Collection
DYEAR=1900
DGENRE=
TTITLE0=Ain't Superstitious
TTITLE1=My Country Sugar Mama
TTITLE2=Killing Floor
TTITLE3=Morning At Midnight
TTITLE4=Going Down Slow
TTITLE5=Commit A Crime
TTITLE6=Somebody Walkin' In My House
TTITLE7=Built For Comfort
TTITLE8=I Walked From Dallas
TTITLE9=Louise
TTITLE10=Ridin' In The Moonlight
TTITLE11=Howlin' For My Darlin'
TTITLE12=Worried About You Baby
TTITLE13=Highway 49
EXTD=
EXTT0=
EXTT1=
EXTT2=
EXTT3=
EXTT4=
EXTT5=
EXTT6=
EXTT7=
EXTT8=
EXTT9=
EXTT10=
EXTT11=
EXTT12=
EXTT13=
PLAYORDER=
